<mxfile host="app.diagrams.net" modified="2023-08-22T02:41:49.729Z" agent="Mozilla/5.0 (Windows NT 10.0; Win64; x64) AppleWebKit/537.36 (KHTML, like Gecko) Chrome/116.0.0.0 Safari/537.36" etag="gKxCM1XyXLL9uEyJiobL" version="21.6.8" type="github">
  <diagram name="Page-1" id="RLFUCSFhBeef6OmPk_Sx">
    <mxGraphModel dx="678" dy="402" grid="1" gridSize="10" guides="1" tooltips="1" connect="1" arrows="1" fold="1" page="1" pageScale="1" pageWidth="850" pageHeight="1100" math="0" shadow="0">
      <root>
        <mxCell id="0" />
        <mxCell id="1" parent="0" />
        <mxCell id="QKRNZRZQqWVn2UaTCz4z-1" value="" style="rounded=0;whiteSpace=wrap;html=1;" vertex="1" parent="1">
          <mxGeometry x="250" y="50" width="220" height="330" as="geometry" />
        </mxCell>
        <mxCell id="QKRNZRZQqWVn2UaTCz4z-2" value="Player1&lt;br&gt;(komputer)" style="shape=umlActor;verticalLabelPosition=bottom;verticalAlign=top;html=1;outlineConnect=0;" vertex="1" parent="1">
          <mxGeometry x="130" y="152.5" width="60" height="115" as="geometry" />
        </mxCell>
        <mxCell id="QKRNZRZQqWVn2UaTCz4z-3" value="Player2&lt;br&gt;(user)" style="shape=umlActor;verticalLabelPosition=bottom;verticalAlign=top;html=1;outlineConnect=0;" vertex="1" parent="1">
          <mxGeometry x="520" y="152.5" width="50" height="110" as="geometry" />
        </mxCell>
        <mxCell id="QKRNZRZQqWVn2UaTCz4z-6" value="" style="ellipse;whiteSpace=wrap;html=1;" vertex="1" parent="1">
          <mxGeometry x="295" y="130" width="130" height="50" as="geometry" />
        </mxCell>
        <mxCell id="QKRNZRZQqWVn2UaTCz4z-7" value="" style="ellipse;whiteSpace=wrap;html=1;" vertex="1" parent="1">
          <mxGeometry x="295" y="240" width="130" height="50" as="geometry" />
        </mxCell>
        <mxCell id="QKRNZRZQqWVn2UaTCz4z-10" value="Game Tebak Gambar" style="text;html=1;strokeColor=none;fillColor=none;align=center;verticalAlign=middle;whiteSpace=wrap;rounded=0;" vertex="1" parent="1">
          <mxGeometry x="260" y="60" width="130" height="30" as="geometry" />
        </mxCell>
        <mxCell id="QKRNZRZQqWVn2UaTCz4z-12" value="Random Angka" style="text;html=1;strokeColor=none;fillColor=none;align=center;verticalAlign=middle;whiteSpace=wrap;rounded=0;" vertex="1" parent="1">
          <mxGeometry x="310" y="140" width="100" height="30" as="geometry" />
        </mxCell>
        <mxCell id="QKRNZRZQqWVn2UaTCz4z-13" value="Tebak Angka" style="text;html=1;strokeColor=none;fillColor=none;align=center;verticalAlign=middle;whiteSpace=wrap;rounded=0;" vertex="1" parent="1">
          <mxGeometry x="320" y="250" width="80" height="30" as="geometry" />
        </mxCell>
        <mxCell id="QKRNZRZQqWVn2UaTCz4z-15" value="" style="endArrow=none;html=1;rounded=0;entryX=0;entryY=1;entryDx=0;entryDy=0;" edge="1" parent="1" target="QKRNZRZQqWVn2UaTCz4z-12">
          <mxGeometry width="50" height="50" relative="1" as="geometry">
            <mxPoint x="180" y="220" as="sourcePoint" />
            <mxPoint x="380" y="190" as="targetPoint" />
            <Array as="points">
              <mxPoint x="250" y="220" />
            </Array>
          </mxGeometry>
        </mxCell>
        <mxCell id="QKRNZRZQqWVn2UaTCz4z-16" value="" style="endArrow=none;html=1;rounded=0;exitX=1;exitY=0.25;exitDx=0;exitDy=0;" edge="1" parent="1">
          <mxGeometry width="50" height="50" relative="1" as="geometry">
            <mxPoint x="400" y="247.5" as="sourcePoint" />
            <mxPoint x="530" y="200" as="targetPoint" />
            <Array as="points">
              <mxPoint x="480" y="248" />
            </Array>
          </mxGeometry>
        </mxCell>
      </root>
    </mxGraphModel>
  </diagram>
</mxfile>
